# xmcd CD database file
#
# Track frame offsets:
#	150
#	26956
#	51780
#	77246
#	104743
#	142557
#	167306
#	184880
#	197713
#	209933
#	228498
#	241875
#	254860
#	272281
#	287482
#
# Disc length: 4063 seconds
#
# Revision: 0
# Processed by: cddbd v1.5.2PL0 Copyright (c) Steve Scherf et al.
# Submitted via: CDex 1.51
#
DISCID=dc0fdd0f
DTITLE=Liz  Mc Comb - I  Believe
DYEAR=2010
DGENRE=Jazz
TTITLE0=Lord, Look Down on Me
TTITLE1=Trimed and Burning
TTITLE2=Trouble in My Way
TTITLE3=There is No Color Line Around the Rainbow
TTITLE4=I Don't Feel Noways Tired
TTITLE5=God Don't Lie
TTITLE6=Humble Me
TTITLE7=He is My Light
TTITLE8=Down by the Riverside - He's Got the Whole World
TTITLE9=I Bowed on My Knees and Cried Holy
TTITLE10=Drinking of the Wine
TTITLE11=Lord, Look Down on Me
TTITLE12=I Can't Stop Loving you
TTITLE13=Fire
TTITLE14=I Believe
EXTD=YEAR: 2010
EXTT0=
EXTT1=
EXTT2=
EXTT3=
EXTT4=
EXTT5=
EXTT6=
EXTT7=
EXTT8=
EXTT9=
EXTT10=
EXTT11=
EXTT12=
EXTT13=
EXTT14=
PLAYORDER=
